<svg xmlns="http://www.w3.org/2000/svg" width="548" height="200" viewBox="0 0 691.35 322.06"><defs><style>.cls-1{fill:#2c4570;}.cls-2{fill:#fefefe;}</style></defs><title>2Park</title><g id="Capa_2" data-name="Capa 2"><g id="Capa_1-2" data-name="Capa 1"><path class="cls-1" d="M602,40.71V185.56l-42.28,0h0c-12.47,0-21.59,6-26.38,17.47-.81,1.93-1.53,3.85-2.22,5.72-.75,2-1.49,4-2.31,5.9-1.17-.16-2.32-.33-3.45-.52-6.27-1.07-11.74,1.24-15,6.35-3.71,5.78-3.54,10.68-2.73,13.77a16.1,16.1,0,0,0,6,8.74l-1.42,1.67a30,30,0,0,0-7.43,19.79q0,4.27,0,8.32h-464A40.71,40.71,0,0,1,0,232V40.71A40.7,40.7,0,0,1,40.71,0H561.32A40.71,40.71,0,0,1,602,40.71Z"/><path class="cls-2" d="M102.93,112.81,84.69,98.12c11.66-15.87,23-24.48,44.08-24.48,25.16,0,40.7,14.52,40.7,36.64,0,19.76-10.14,29.72-31.08,45.93l-19.25,14.86h51.51v22.46H83.17v-20.6l39.35-32.25C137.21,128.52,143,122.1,143,112.31c0-10-6.58-15.37-15.87-15.37C118,96.94,111.71,102,102.93,112.81Z"/><path class="cls-2" d="M231.61,158.07H211.85v35.46h-26V75.33h48.3c28.2,0,45.26,16.71,45.26,40.86v.34C279.4,143.89,258.12,158.07,231.61,158.07Zm21.44-41.37c0-11.65-8.1-17.9-21.1-17.9h-20.1v36.14h20.6c13,0,20.6-7.77,20.6-17.9Z"/><path class="cls-2" d="M338.84,193.53v-9.79c-6.25,6.92-14.86,11.48-27.36,11.48-17.05,0-31.07-9.79-31.07-27.69v-.34c0-19.76,15-28.88,36.48-28.88A64.2,64.2,0,0,1,339,142v-1.52c0-10.64-6.59-16.55-19.42-16.55-9.79,0-16.72,1.86-25,4.9l-6.42-19.59c10-4.39,19.76-7.26,35.13-7.26,28,0,40.35,14.52,40.35,39v52.51Zm.51-36.47A39.73,39.73,0,0,0,323,153.68c-11,0-17.73,4.39-17.73,12.5v.33c0,6.93,5.74,11,14,11,12,0,20.1-6.58,20.1-15.87Z"/><path class="cls-2" d="M430.54,128.18c-17.06,0-27.53,10.3-27.53,31.92v33.43H377.34V103H403v18.24c5.24-12.5,13.68-20.6,28.88-19.93v26.85Z"/><path class="cls-2" d="M497.75,193.53l-23.65-37-9,9.46v27.52H439.49V70.26h25.66V136L495.21,103H526L491.5,138.65l35.63,54.88Z"/><path class="cls-1" d="M669.59,222.91c6.57,1.56,13.59-5.34,17.92,3.06,4.53,8.8-2.5,11.58-9,14.67,2.9,3.68,5.46,6.9,8,10.13a22.51,22.51,0,0,1,4.79,14.4c0,14.5,0,29,0,43.49-.06,9.44-4,13.29-13.41,13.34-5.83,0-11.67.09-17.49,0-7.17-.16-11.44-4.47-11.62-11.58-.09-3.12,0-6.25,0-9.64h-93.3c0,3.17.09,6.28,0,9.38-.24,7.39-4.57,11.71-11.94,11.83-6.33.11-12.67.17-19,0-7.4-.18-11.7-4.55-11.74-12-.09-15.16,0-30.32,0-45.49a22.09,22.09,0,0,1,5.53-14.63c2.44-2.88,4.87-5.77,7.26-8.6-1.45-2.07-3.36-2.39-4.93-3.22-5.74-3.07-7.09-7.72-3.56-13.22,1.59-2.47,4-3.29,7-2.79,3.09.53,6.21.88,9.36,1.31,3.36-5.6,5-11.57,7.35-17.2,3.59-8.57,9.88-12.57,19-12.56q41.49,0,83,0c8.74,0,14.91,3.76,18.53,11.8C664,211.38,666.93,217.32,669.59,222.91Zm-22.79-14.1c-5.92-1.46-87.11-1.19-91.3.27-2.16,6.67-5,13.47-6.17,20.73,6.41,2,101,1.41,104.67-.73C651.57,222.24,649.1,215.3,646.8,208.81Zm7.59,63.09h5.48c13.36,0,13.67-.32,12.74-13.72-.32-4.54-2.44-6.31-6.88-5.31q-12.87,2.88-25.67,6.08c-3.79.94-5.54,3.72-5.11,7.46s2.67,5.54,6.47,5.49C645.74,271.85,650.07,271.89,654.39,271.9ZM533.28,271c9.86,0,19.78,0,29.71,0,3.94,0,5.87-2.17,6.22-5.72s-1.33-6.22-4.9-7.11c-8.86-2.2-17.75-4.25-26.64-6.31-2.6-.61-5.11.16-5.57,2.81C531.21,259.82,530.6,265.12,533.28,271Z"/></g></g></svg>